<svg id="图层_1" data-name="图层 1" xmlns="http://www.w3.org/2000/svg" viewBox="0 0 192 50"><defs><style>.cls-1{fill:#dd2525;}.cls-2{fill:#58595b;}</style></defs><title>未标题-1</title><path d="M43.62,48.48H33.49V16.08H58.11V22.9H43.69v5.67H56.05V35.2H43.62Z"/><path d="M138.4,48.49h-8.26V45.28l-.47-.33a11.47,11.47,0,0,1-1.21,1.53,9.68,9.68,0,0,1-10.37,2,6.13,6.13,0,0,1-4.3-5.7c-.23-5.91-.07-11.84-.07-17.85h8.78c0,.53.08,1.08.08,1.63,0,3.46,0,6.93,0,10.4a13.27,13.27,0,0,0,.18,2.18c.32,2,1,2.67,2.62,2.76a3.27,3.27,0,0,0,3.65-2.54,18,18,0,0,0,.39-3.58c.05-3.47,0-6.93,0-10.4a2.47,2.47,0,0,1,.09-.42h8.84Z"/><path d="M191,39H173c.2,2,.89,3.66,2.82,4.41a4.67,4.67,0,0,0,5.08-1.07,2.86,2.86,0,0,1,1.88-.6c2.51.14,5,.42,7.68.67a11,11,0,0,1-7.13,6,23.25,23.25,0,0,1-10.46.3A10.55,10.55,0,0,1,164.15,40c-1-4.72-.27-9.09,3.52-12.52,2.79-2.53,6.22-3.13,9.8-3.08a23.85,23.85,0,0,1,5,.56A11.06,11.06,0,0,1,191,35.54C191,36.63,191,37.73,191,39Zm-9.25-4.46c-.25-3.19-1.58-4.71-4.1-4.75-2.69,0-4.19,1.52-4.5,4.75Z"/><path d="M87.87,48.49H79.59V44.93c-.52.48-.78.7-1,1-2.82,3-6.28,3.81-10.21,2.92a6.76,6.76,0,0,1-5.13-6.26C63,38,63,33.41,63,28.84c0-1.25,0-2.51,0-3.87h9.11V26.6c0,3.83,0,7.67,0,11.51,0,2.75,1.17,3.94,3.46,3.81a3.27,3.27,0,0,0,3.08-3c.23-2.24.27-4.51.31-6.76S79,27.4,79,25h8.92Z"/><path class="cls-1" d="M28.5,39h-18c.24,2.13.91,3.77,2.91,4.46a4.69,4.69,0,0,0,5.2-1.25c.24-.24.6-.58.87-.56,2.76.23,5.51.53,8.47.83-1.72,3.09-3.93,5.41-7.22,5.89a38.12,38.12,0,0,1-10,.33C5.48,48,2.43,44.49,1.53,39.33.34,32.42,3.56,26,11.2,24.76a25.78,25.78,0,0,1,8.45.17c5.27.95,8.56,5.21,8.84,10.8C28.54,36.77,28.5,37.8,28.5,39Zm-9.25-4.44c-.1-3.07-1.7-4.8-4.3-4.82a4.38,4.38,0,0,0-4.25,4.82Z"/><path d="M95.23,31.55H91.91V24.92H95.3c0-1.24,0-2.33,0-3.4a1.78,1.78,0,0,1,.61-1.27c2.7-1.46,5.46-2.83,8.41-4.33v8.87h4.81v6.66h-4.64c0,3.42-.06,6.67.07,9.9,0,.43.93,1.09,1.5,1.17a11.45,11.45,0,0,0,2.9-.3l.72,6.5a72.26,72.26,0,0,1-8.63.2c-3.84-.36-5.6-2.56-5.69-6.42-.07-3,0-6.09-.08-9.14C95.3,32.79,95.26,32.23,95.23,31.55Z"/><path d="M162.63,25.71,159.9,32l-1.37-.38c-2.11-.58-3.72.07-4.38,2.17a23.86,23.86,0,0,0-1,5.69c-.16,2.93,0,5.87,0,8.92h-9.08V25h8.45V28.2C156.26,24,158.7,23.38,162.63,25.71Z"/><path class="cls-2" d="M131.38,8.89l0,.19h.19c.4,0,.93,0,1.58-.05l2.45,0L138,9c.66,0,1.22,0,1.66.05h.18V8.9c0-.45-.05-.92-.05-1.4,0-.28,0-.53,0-.77s0-.46,0-.66V5.89h-.18q-.6,0-1.56.06l-2.5,0-2.43,0c-.67,0-1.21,0-1.61-.06h-.19l0,.19c0,.25.05.49.07.7s0,.46,0,.72,0,.54,0,.75S131.41,8.67,131.38,8.89ZM132.72,8V7h5.76V8Z"/><path class="cls-2" d="M141.26,10.45a4.37,4.37,0,0,1,.08-.69l0-.21-.2,0c-.58,0-1.31.07-2.2.09s-2,0-3.25,0-2.37,0-3.24,0-1.61-.05-2.18-.09l-.2,0,0,.2a4.73,4.73,0,0,1,.07.7c0,.25,0,.51,0,.76v2.37c0,.26,0,.48,0,.66s0,.36,0,.52a2.77,2.77,0,0,1,0,.42c0,.14,0,.28-.05.43l0,.18h1.4v-1H140v.61h1.4l0-.18a8.8,8.8,0,0,1-.08-.91c0-.31,0-.69,0-1.12v-2C141.23,11,141.24,10.7,141.26,10.45Zm-4.91,1.29v-1H140v1Zm3.62,1v1h-3.62v-1Zm-4.88-2v1H131.5v-1Zm0,2v1H131.5v-1Z"/><path class="cls-2" d="M139.94,2.51c-.92,0-2.14,0-3.6,0-.11-.3-.21-.57-.31-.8a8.3,8.3,0,0,0-.39-.8l-.06-.12-1.46.56.14.17a5.89,5.89,0,0,1,.48.63,2.12,2.12,0,0,1,.21.36h-2l-1.73,0-1.28,0L129,2.39h-.17V5.72h1.38V3.61H141v2h1.37V2.38h-.17C141.64,2.45,140.9,2.48,139.94,2.51Z"/><path class="cls-2" d="M140.31,5.41V4.11h-.17l-.9.06-1,0-1.17,0h-2.95l-1.16,0-1,0-.89-.06H131v1.3h.17l.9-.06,1,0,1.17,0h2.93l1.16,0,1,0,.9.06Z"/><path class="cls-2" d="M156.74,10.59a7.3,7.3,0,0,1-1.51-1.31l1,0,1,0,.81,0,.65,0,.18,0V8.08h-.17q-.72.06-1.65.09c-.57,0-1.12,0-1.64.05V3.85l1.16,0c.42,0,.84,0,1.24.09h.18V2.58l-.18,0c-.77.08-1.58.13-2.4.14V2.2a.85.85,0,0,1,.05-.3.59.59,0,0,1,.22-.24c.19-.17.16-.31.12-.38a.37.37,0,0,0-.36-.17,5.28,5.28,0,0,1-.59,0L154.27,1l-.24,0,.05.24a4,4,0,0,1,.1.67c0,.22,0,.53,0,.92H149V2.12a1.77,1.77,0,0,1,0-.37.42.42,0,0,1,.1-.17c.19-.17.16-.31.12-.38a.4.4,0,0,0-.36-.15,4.33,4.33,0,0,1-.55,0,3.35,3.35,0,0,1-.58-.1L147.5.87l.05.24c0,.24.1.49.13.75s0,.51,0,.87q-.57,0-1.11,0c-.41,0-.83-.06-1.23-.1l-.17,0V4h.17c.4,0,.82-.08,1.23-.1s.74,0,1.11,0v4.4l-1.44,0c-.53,0-1,0-1.52-.1h-.17V9.45l.17,0,.63,0,.76,0,1,0,.92,0a6.76,6.76,0,0,1-.57.62,7,7,0,0,1-.92.76,8.76,8.76,0,0,1-1.14.66c-.42.2-.89.4-1.41.59l-.27.1.23.18a1.67,1.67,0,0,1,.38.37,1.32,1.32,0,0,1,.2.46l.06.18.16-.08a12.62,12.62,0,0,0,2.84-1.81l.09-.08v1.3l.18,0c.35,0,.82-.08,1.41-.1s1.13,0,1.74,0v1.54h-1.34l-1.24,0-1.06,0c-.33,0-.65,0-1-.06h-.17v1.33h.17l1,0,1.17,0L150,15h3.43l1.35,0,1.12,0,1,0h.17V13.78H157c-.32,0-.64,0-1,.06l-1,0-1.25,0h-1.4V12.38c.58,0,1.12,0,1.62,0l1.33.09h.17V11.23l-.17,0c-.34,0-.78.06-1.33.08s-1,0-1.62,0v-1a1.18,1.18,0,0,1,.05-.29.49.49,0,0,1,.1-.18c.08-.06.27-.2.21-.37s-.28-.17-.37-.17h-.64l-.25,0-.3,0-.21,0h3a9.65,9.65,0,0,0,1.79,2A15.56,15.56,0,0,0,158.36,13l.16.08.06-.16a4.25,4.25,0,0,1,.25-.52,5,5,0,0,1,.39-.51l.17-.19-.24-.06A7.84,7.84,0,0,1,156.74,10.59ZM154.21,7.4v.84H149V7.4Zm0-1.78v.86H149V5.62Zm0-1.79v.8H149v-.8ZM150.9,9.48a6.32,6.32,0,0,1,.09.7q0,.39,0,.87v.31l-1.73,0c-.59,0-1.07-.05-1.42-.09l-.18,0a12.53,12.53,0,0,0,1.87-2h1.29Z"/><path class="cls-2" d="M167,4.07l0-.19-.19,0c-.35,0-.83.05-1.44.05h-3.47l-.55,0-.2,0,0,.2c0,.28.06.52.07.74s0,.49,0,.82,0,.62,0,.85,0,.48-.07.74l0,.2.2,0,.55-.05h4.31l.59.05.2,0,0-.19c0-.23,0-.46,0-.69s0-.53,0-.9,0-.7,0-.93S166.93,4.27,167,4.07ZM165.74,5V6.28h-3.37V5Z"/><path class="cls-2" d="M161.56,3.24c.41,0,.87,0,1.34,0h2.44l1.26,0a8.83,8.83,0,0,1,1.13.11l.18,0V1.93l-.18,0a11.75,11.75,0,0,1-1.33.11c-.55,0-1.33,0-2.31,0s-1.76,0-2.32,0A12,12,0,0,1,160.44,2l-.18,0V3.38l.18,0A8.67,8.67,0,0,1,161.56,3.24Z"/><path class="cls-2" d="M174.58,13.93l-.41-1c-.15-.33-.29-.65-.44-1s-.28-.6-.43-.86l-.07-.13-1.21.54.1.15a12.26,12.26,0,0,1,.77,1.41l-1.33.2V9.82h1.16v.78H174v-.17c0-.28,0-.63,0-1s0-.87,0-1.38V5.63c0-.28,0-.54,0-.78s0-.44,0-.6l0-.2-.2,0-1,.06-1.26,0V2.23c0-.22,0-.49.19-.56a.36.36,0,0,0,.29-.39c0-.08-.07-.29-.43-.26a5.42,5.42,0,0,1-1.19-.1l-.21,0,0,.22c0,.09,0,.33,0,.95s0,1.19,0,2.13l-1.21,0c-.41,0-.75,0-1-.07l-.22,0,0,.21a5.3,5.3,0,0,1,.06.54c0,.26,0,.54,0,.83V9.52c0,.18,0,.36,0,.55l0,.57c0,.18,0,.35,0,.5v.17h1.3V9.82h1.1v3.66l-.63.06-.76.05-.68,0a4.81,4.81,0,0,1-.55,0h-.06V9.76c0-.36,0-.7,0-1s0-.53.06-.66l0-.2-.2,0-.68,0L166,8l-1,0c-1.06,0-2.05,0-3,0l-1.54-.09-.19,0,0,.19c0,.21,0,.47.06.76s0,.6,0,.91v3.31c0,.61,0,1.31-.09,2.09l0,.17h1.32V9.08h1l-.72.53.12.13a5.27,5.27,0,0,1,.54.66,7,7,0,0,1,.34.61h-.2c-.35,0-.64,0-.84-.07l-.19,0v1.21l.19,0a9.18,9.18,0,0,1,1.58-.09v1c0,.41,0,.74,0,1s0,.47-.07.66l0,.18h1.48l-.06-.2a4.64,4.64,0,0,1-.1-.63v-.06l.23.29a1.93,1.93,0,0,1,.31.54,2.43,2.43,0,0,1,.09.57v.17l.17,0c.46-.06.83-.12,1.1-.18a2,2,0,0,0,.69-.28.94.94,0,0,0,.36-.5,1.82,1.82,0,0,0,.08-.44c0,.11.07.22.1.32a2.07,2.07,0,0,1,.06.5v.21L168,15c.24-.07.46-.12.66-.16l.61-.13.63-.12.8-.12,2.63-.38a9.14,9.14,0,0,1,.3,1.2l0,.18L175,15l0-.15C174.82,14.57,174.7,14.26,174.58,13.93Zm-10.15-3.86A5.29,5.29,0,0,1,164,11h-.67l.61-.33-.07-.14a7.85,7.85,0,0,0-.42-.76,6.65,6.65,0,0,0-.52-.71h1.78A5.57,5.57,0,0,1,164.43,10.07Zm.17,3.8c0-.27,0-.59,0-1V12h.36l.52,0,.45,0,.31,0,.18,0V10.9l-.18,0a4.87,4.87,0,0,1-.51.05c-.15,0-.36,0-.62,0a5.62,5.62,0,0,1,.49-.77c.17-.21.25-.28.29-.29s.33-.16.3-.36-.28-.24-.39-.26a1.55,1.55,0,0,1-.41-.12,1.47,1.47,0,0,1-.24-.13h1.34v4.44a1.09,1.09,0,0,1,0,.34.28.28,0,0,1-.15.12,1.34,1.34,0,0,1-.44,0,7.09,7.09,0,0,1-.84-.1Zm7-5.15V5.33h1.16V8.72Zm-1.24-3.39V8.72h-1.1V5.33Z"/><path class="cls-2" d="M178,3.43A9.74,9.74,0,0,1,179,4.6l.1.13,1-.87L180,3.74c-.37-.41-.78-.81-1.21-1.2a14.22,14.22,0,0,0-1.47-1.16l-.11-.08-.87.91.16.11A8.17,8.17,0,0,1,178,3.43Z"/><path class="cls-2" d="M191.05,13.75c-1.45.17-2.73.29-3.8.36a25,25,0,0,1-2.83,0,11.21,11.21,0,0,1-2.12-.31,8.08,8.08,0,0,1-1.47-.55h1.28V10.71h2.39c0,.43,0,.83,0,1.19s0,.74-.07,1l0,.18h1.44l0-.18c0-.23-.05-.56-.07-1s0-.76,0-1.2h2.56v.94a1.09,1.09,0,0,1,0,.34.29.29,0,0,1-.16.15,1.5,1.5,0,0,1-.51.08c-.23,0-.56,0-1,0l-.4,0,.27.29a2.27,2.27,0,0,1,.37.54,1.85,1.85,0,0,1,.15.48l0,.16.16,0a10,10,0,0,0,1.23-.25,2.58,2.58,0,0,0,.72-.31.86.86,0,0,0,.35-.46,1.84,1.84,0,0,0,.07-.55V7c0-.43,0-.79,0-1.07a3.79,3.79,0,0,1,.1-.73l.05-.23-.23,0-.45,0-.65,0-.94,0-1,0,.19-.24-.15-.09-.27-.16-.07,0c.44-.35.82-.63,1.12-.84s.62-.42.84-.55a2.16,2.16,0,0,1,.53-.23l.42-.09.13,0V1.69l-.17,0-.63.05-.76,0-1.09,0h-3.25l-1.06,0-.72,0-.63-.05-.17,0V3l.17,0,.65,0,.75,0h4.27L185,4l-.83-.39-1.11-.47-.75.91.19.09c.5.22,1,.43,1.38.63a7.62,7.62,0,0,1,.69.38h-1l-1,0c-.28,0-.54,0-.78,0L181,5l-.2,0,0,.21.06.35q0,.15,0,.33c0,.13,0,.28,0,.46s0,.41,0,.67v4.36c0,.31,0,.61,0,.88s-.05.57-.09.87l0,.15-.17-.09a3.14,3.14,0,0,0-.54-.2,5.45,5.45,0,0,0-.58-.14V7.93c0-.42,0-.79,0-1.1a3.88,3.88,0,0,1,.09-.77l.06-.23-.23,0c-.21,0-.47.06-.76.08a12.77,12.77,0,0,1-1.75,0c-.28,0-.53,0-.74-.08l-.18,0V7.15l.17,0c.2,0,.47,0,.8,0l1.24,0v5.7a1.74,1.74,0,0,0-.25.11,4.07,4.07,0,0,0-.44.27c-.16.11-.34.26-.56.43s-.46.39-.74.65l-.13.12.14.12c.11.09.23.2.34.31s.25.29.4.49l.12.16.13-.15a11.12,11.12,0,0,1,.84-.93,1.7,1.7,0,0,1,.62-.42.93.93,0,0,1,.57,0,4.41,4.41,0,0,1,.77.3c.45.22.88.41,1.28.57a11.93,11.93,0,0,0,1.24.38,10.44,10.44,0,0,0,1.38.23c.49,0,1.06.07,1.7.08H186l1.8,0,2.87-.09h.15v-.16a2.08,2.08,0,0,1,.06-.65,1.06,1.06,0,0,1,.31-.49l.32-.33Zm-2.77-5.24v1.2h-2.56V8.51Zm-2.56-1V6.18h2.56V7.5Zm-3.61,2.21V8.51h2.39v1.2Zm0-2.21V6.18h2.39V7.5Z"/></svg>